<svg xmlns="http://www.w3.org/2000/svg" xmlns:xlink="http://www.w3.org/1999/xlink" preserveAspectRatio="xMidYMid" width="18" height="18" viewBox="0 0 18 18">
  <defs>
    <style>
      .cls-1 {
        fill: #6b81ff;
        fill-rule: evenodd;
      }
    </style>
  </defs>
  <path d="M9.000,2.000 C12.859,2.001 16.000,5.142 16.000,9.001 C16.000,12.859 12.859,15.999 9.000,16.000 C5.141,16.000 2.000,12.860 2.000,9.001 C2.000,5.142 5.141,2.001 9.000,2.000 M9.000,0.000 C4.029,0.001 -0.000,4.030 -0.000,9.001 C-0.000,13.971 4.029,18.000 9.000,18.000 C13.970,17.999 18.000,13.970 18.000,9.001 C18.000,4.030 13.971,0.001 9.000,0.000 ZM13.182,4.819 C13.053,4.691 12.867,4.641 12.691,4.692 L6.740,6.398 C6.574,6.446 6.445,6.575 6.398,6.741 L4.691,12.692 C4.640,12.867 4.689,13.055 4.818,13.183 C4.913,13.278 5.041,13.329 5.172,13.329 L5.310,13.309 L11.260,11.601 C11.425,11.554 11.555,11.424 11.602,11.258 L13.309,5.309 C13.359,5.136 13.311,4.948 13.182,4.819 ZM5.900,12.101 L7.283,7.284 L10.717,10.719 L5.900,12.101 Z" class="cls-1"/>
</svg>
