<svg xmlns="http://www.w3.org/2000/svg" xmlns:xlink="http://www.w3.org/1999/xlink" preserveAspectRatio="xMidYMid" width="16" height="16" viewBox="0 0 16 16">
  <defs>
    <style>
      .cls-1 {
        fill: #e7e7e7;
        fill-rule: evenodd;
      }
    </style>
  </defs>
  <path d="M14.000,6.000 L10.000,6.000 L10.000,2.000 C10.000,0.896 9.104,0.000 8.000,0.000 C6.896,0.000 6.000,0.896 6.000,2.000 L6.071,6.000 L2.000,6.000 C0.896,6.000 0.000,6.896 0.000,8.000 C0.000,9.104 0.896,10.000 2.000,10.000 L6.071,9.929 L6.000,14.000 C6.000,15.104 6.896,16.000 8.000,16.000 C9.104,16.000 10.000,15.104 10.000,14.000 L10.000,9.929 L14.000,10.000 C15.104,10.000 16.000,9.104 16.000,8.000 C16.000,6.896 15.104,6.000 14.000,6.000 Z" class="cls-1"/>
</svg>
