<svg xmlns="http://www.w3.org/2000/svg" xmlns:xlink="http://www.w3.org/1999/xlink" preserveAspectRatio="xMidYMid" width="13" height="13" viewBox="0 0 13 13">
  <defs>
    <style>
      .cls-1 {
        fill: #6b81ff;
      }

      .cls-1, .cls-2 {
        fill-rule: evenodd;
      }

      .cls-2 {
        fill: #5766c0;
      }
    </style>
  </defs>
  <g>
    <path d="M9.482,6.206 L3.573,6.206 L0.716,10.690 C0.259,11.411 0.733,12.297 1.680,12.407 C1.746,12.415 1.814,12.354 1.883,12.354 L11.172,12.354 C11.241,12.354 11.309,12.399 11.375,12.391 C12.322,12.281 12.796,11.387 12.340,10.666 L9.482,6.206 Z" class="cls-1"/>
    <path d="M1.702,13.009 C1.673,13.009 1.642,13.006 1.610,13.002 C0.993,12.915 0.479,12.535 0.200,11.959 C-0.095,11.350 -0.080,10.620 0.241,10.004 L3.614,5.517 C3.866,5.033 4.102,4.515 4.102,4.036 L4.102,3.085 C3.393,3.081 2.917,2.572 2.917,1.815 L2.917,1.595 C2.917,0.809 3.364,-0.003 4.111,-0.003 L8.830,-0.003 C9.577,-0.003 10.023,0.809 10.023,1.595 L10.023,1.815 C10.023,2.572 9.548,3.081 8.839,3.085 L8.839,4.036 C8.839,4.515 9.074,5.033 9.329,5.522 L12.759,9.996 C12.761,9.999 12.762,10.002 12.764,10.005 C13.079,10.610 13.092,11.333 12.798,11.939 C12.513,12.526 11.990,12.914 11.365,13.002 C11.212,13.020 11.089,12.988 11.015,12.963 L1.947,12.963 C1.886,12.986 1.803,13.009 1.702,13.009 ZM1.857,11.727 L11.084,11.727 C11.168,11.727 11.241,11.743 11.297,11.759 C11.555,11.690 11.684,11.496 11.741,11.380 C11.858,11.138 11.853,10.847 11.725,10.599 L8.293,6.121 C7.959,5.480 7.655,4.791 7.655,4.036 L7.655,2.468 C7.655,2.126 7.920,1.850 8.247,1.850 L8.830,1.850 C8.833,1.850 8.836,1.850 8.838,1.850 C8.838,1.841 8.839,1.829 8.839,1.815 L8.839,1.595 C8.839,1.444 8.791,1.301 8.752,1.232 L4.189,1.232 C4.150,1.301 4.102,1.444 4.102,1.595 L4.102,1.815 C4.102,1.826 4.102,1.836 4.102,1.844 L4.694,1.850 C5.021,1.850 5.286,2.126 5.286,2.468 L5.286,4.036 C5.286,4.791 4.982,5.480 4.653,6.112 L1.279,10.600 C1.146,10.854 1.137,11.155 1.257,11.401 C1.309,11.508 1.427,11.684 1.663,11.755 C1.717,11.740 1.782,11.727 1.857,11.727 Z" class="cls-2"/>
  </g>
</svg>
