<svg xmlns="http://www.w3.org/2000/svg" width="18" height="17" viewBox="0 0 18 17">
  <defs>
    <style>
      .cls-1 {
        fill: #e7e7e7;
        fill-rule: evenodd;
      }
    </style>
  </defs>
  <path id="btn_export.svg" class="cls-1" d="M349,329.5V330c1.691-2.578,3.6-3.953,6-4v3a1.079,1.079,0,0,0,1.143,1,1.176,1.176,0,0,0,.883-0.391C358.959,327.58,363,323.5,363,323.5s-4.041-4.082-5.975-6.137a1.262,1.262,0,0,0-.882-0.363A1.078,1.078,0,0,0,355,318v3C350.34,321,349,325.871,349,329.5Zm-2,4.5h12a3.559,3.559,0,0,0,2-2v-5.046c-0.664.676-1.364,1.393-2,2.047v3H347V320h7v-2h-7a3.559,3.559,0,0,0-2,2v12A3.559,3.559,0,0,0,347,334Z" transform="translate(-345 -317)"/>
</svg>
