<svg xmlns="http://www.w3.org/2000/svg" xmlns:xlink="http://www.w3.org/1999/xlink" preserveAspectRatio="xMidYMid" width="20.906" height="16" viewBox="0 0 20.906 16">
  <defs>
    <style>
      .cls-1 {
        fill: #fff;
        fill-rule: evenodd;
      }
    </style>
  </defs>
  <path d="M20.203,4.000 L17.813,4.000 C17.415,2.800 16.320,2.000 15.025,2.000 L9.051,2.000 C9.051,0.900 8.155,0.000 7.060,0.000 L2.978,0.000 C1.285,0.000 -0.009,1.300 -0.009,3.000 L-0.009,13.000 C-0.009,14.700 1.285,16.000 2.978,16.000 L14.926,16.000 C16.618,16.000 18.311,14.700 18.709,13.000 L20.900,5.000 C20.999,4.400 20.700,4.000 20.203,4.000 ZM1.982,5.000 L1.982,3.000 C1.982,2.400 2.380,2.000 2.978,2.000 L6.960,2.000 C6.960,3.100 7.856,4.000 8.952,4.000 L14.926,4.000 C15.523,4.000 15.921,4.400 15.921,5.000 L4.869,5.000 C4.272,5.000 3.774,5.400 3.575,6.000 L1.982,12.300 L1.982,5.000 ZM16.817,12.500 C16.618,13.300 15.722,14.000 14.926,14.000 L2.978,14.000 C2.978,14.000 2.579,13.800 2.778,13.200 L4.670,6.200 C4.670,6.100 4.869,6.000 4.969,6.000 L18.610,6.000 L16.817,12.500 Z" class="cls-1"/>
</svg>
