<svg xmlns="http://www.w3.org/2000/svg" xmlns:xlink="http://www.w3.org/1999/xlink" preserveAspectRatio="xMidYMid" width="16" height="16" viewBox="0 0 16 16">
  <defs>
    <style>
      .cls-1 {
        fill: #e7e7e7;
        fill-rule: evenodd;
      }
    </style>
  </defs>
  <path d="M15.785,3.619 C15.735,3.451 15.601,3.320 15.431,3.275 C15.259,3.228 15.079,3.278 14.954,3.401 L12.338,5.958 L10.424,5.575 L10.043,3.668 L12.688,1.083 C12.814,0.960 12.866,0.780 12.825,0.609 C12.784,0.438 12.657,0.301 12.489,0.248 C11.958,0.082 11.471,0.000 11.000,0.000 C8.243,0.000 6.000,2.243 6.000,5.000 C6.000,5.323 6.038,5.650 6.118,6.010 C5.556,6.473 5.022,6.872 4.417,7.324 C3.552,7.970 2.572,8.701 1.235,9.830 C0.450,10.516 -0.000,11.489 -0.000,12.500 C-0.000,14.430 1.570,16.000 3.500,16.000 C4.521,16.000 5.493,15.544 6.162,14.750 C7.311,13.403 8.053,12.414 8.706,11.541 C9.148,10.950 9.538,10.430 9.989,9.881 C10.349,9.962 10.677,10.000 11.000,10.000 C13.757,10.000 16.000,7.757 16.000,5.000 C16.000,4.563 15.932,4.125 15.785,3.619 ZM3.500,13.500 C2.947,13.500 2.500,13.053 2.500,12.500 C2.500,11.947 2.947,11.500 3.500,11.500 C4.053,11.500 4.500,11.947 4.500,12.500 C4.500,13.053 4.053,13.500 3.500,13.500 Z" class="cls-1"/>
</svg>
