<svg xmlns="http://www.w3.org/2000/svg" xmlns:xlink="http://www.w3.org/1999/xlink" preserveAspectRatio="xMidYMid" width="23" height="18" viewBox="0 0 23 18">
  <defs>
    <style>
      .cls-1 {
        fill: #5b6ec7;
        fill-rule: evenodd;
      }
    </style>
  </defs>
  <path d="M20.000,18.000 L3.000,18.000 C1.343,18.000 -0.000,16.657 -0.000,15.000 L-0.000,3.000 C-0.000,1.343 1.343,-0.000 3.000,-0.000 L20.000,-0.000 C21.657,-0.000 23.000,1.343 23.000,3.000 L23.000,15.000 C23.000,16.657 21.657,18.000 20.000,18.000 ZM21.000,3.000 C21.000,2.448 20.552,2.000 20.000,2.000 L3.000,2.000 C2.448,2.000 2.000,2.448 2.000,3.000 L2.000,15.000 C2.000,15.552 2.448,16.000 3.000,16.000 L20.000,16.000 C20.552,16.000 21.000,15.552 21.000,15.000 L21.000,3.000 ZM18.000,14.000 L12.000,14.000 C11.448,14.000 11.000,13.552 11.000,13.000 C11.000,12.448 11.448,12.000 12.000,12.000 L18.000,12.000 C18.552,12.000 19.000,12.448 19.000,13.000 C19.000,13.552 18.552,14.000 18.000,14.000 ZM18.000,10.000 L15.000,10.000 C14.448,10.000 14.000,9.552 14.000,9.000 C14.000,8.448 14.448,8.000 15.000,8.000 L18.000,8.000 C18.552,8.000 19.000,8.448 19.000,9.000 C19.000,9.552 18.552,10.000 18.000,10.000 ZM18.000,6.000 L12.000,6.000 C11.448,6.000 11.000,5.552 11.000,5.000 C11.000,4.448 11.448,4.000 12.000,4.000 L18.000,4.000 C18.552,4.000 19.000,4.448 19.000,5.000 C19.000,5.552 18.552,6.000 18.000,6.000 ZM9.678,9.957 C9.503,10.117 9.281,10.194 9.054,10.221 L6.108,12.717 C5.704,13.087 5.050,13.087 4.646,12.717 C4.242,12.347 4.242,11.746 4.646,11.376 L7.240,9.178 L4.288,6.663 C3.867,6.277 3.867,5.650 4.288,5.264 C4.709,4.878 5.392,4.878 5.814,5.264 L9.135,8.095 C9.338,8.128 9.534,8.199 9.690,8.342 C9.926,8.558 10.007,8.850 9.967,9.132 C10.009,9.426 9.924,9.731 9.678,9.957 Z" class="cls-1"/>
</svg>
