<svg xmlns="http://www.w3.org/2000/svg" width="16" height="16" viewBox="0 0 16 16">
  <defs>
    <style>
      .cls-1 {
        fill: #e7e7e7;
        fill-rule: evenodd;
      }
    </style>
  </defs>
  <path id="btn_forget.svg" class="cls-1" d="M303,318h12a2,2,0,0,1,2,2v12a2,2,0,0,1-2,2H303a2,2,0,0,1-2-2V320A2,2,0,0,1,303,318Zm1,2h10a1,1,0,0,1,1,1v10a1,1,0,0,1-1,1H304a1,1,0,0,1-1-1V321A1,1,0,0,1,304,320Zm8.666,8.105-2.113-2.114,2.113-2.113a1.1,1.1,0,0,0-1.561-1.561l-2.086,2.141-2.141-2.141a1.1,1.1,0,1,0-1.561,1.561l2.168,2.113-2.168,2.114a1.1,1.1,0,0,0,1.561,1.561l2.141-2.141,2.086,2.141A1.1,1.1,0,0,0,312.666,328.105Z" transform="translate(-301 -318)"/>
</svg>
