<svg xmlns="http://www.w3.org/2000/svg" xmlns:xlink="http://www.w3.org/1999/xlink" preserveAspectRatio="xMidYMid" width="9" height="8" viewBox="0 0 9 8">
  <defs>
    <style>
      .cls-1 {
        fill: #afb0b5;
        fill-rule: evenodd;
      }
    </style>
  </defs>
  <path d="M7.500,1.000 L4.500,1.000 C4.500,0.448 4.052,0.000 3.500,0.000 L1.500,0.000 C0.673,0.000 0.000,0.673 0.000,1.500 L0.000,6.500 C0.000,7.327 0.673,8.000 1.500,8.000 L7.500,8.000 C8.327,8.000 9.000,7.327 9.000,6.500 L9.000,2.500 C9.000,1.673 8.327,1.000 7.500,1.000 ZM1.500,1.000 L3.500,1.000 C3.500,1.552 3.948,2.000 4.500,2.000 L7.500,2.000 C7.776,2.000 8.000,2.224 8.000,2.500 L1.000,2.500 L1.000,1.500 C1.000,1.224 1.224,1.000 1.500,1.000 ZM7.500,7.000 L1.500,7.000 C1.224,7.000 1.000,6.776 1.000,6.500 L1.000,3.000 L8.000,3.000 L8.000,6.500 C8.000,6.776 7.776,7.000 7.500,7.000 Z" class="cls-1"/>
</svg>
